<svg width="13" height="13" viewBox="0 0 13 13" fill="none" xmlns="http://www.w3.org/2000/svg">
<g opacity="0.6" clip-path="url(#clip0_3002_130)">
<path d="M12.05 6.1001C12.05 3.06253 9.58755 0.600098 6.54999 0.600098C3.51242 0.600098 1.04999 3.06253 1.04999 6.1001C1.04999 9.13766 3.51242 11.6001 6.54999 11.6001C9.58755 11.6001 12.05 9.13766 12.05 6.1001Z" stroke="white"/>
<path d="M1.29999 6.1001H11.8" stroke="white"/>
<path d="M8.29999 6.1001C8.29999 7.71287 8.054 9.15069 7.67282 10.1672C7.48153 10.6773 7.26582 11.0553 7.05166 11.2969C6.83698 11.539 6.66631 11.6001 6.54999 11.6001C6.43367 11.6001 6.263 11.539 6.04832 11.2969C5.83416 11.0553 5.61845 10.6773 5.42716 10.1672C5.04598 9.15069 4.79999 7.71287 4.79999 6.1001C4.79999 4.48733 5.04598 3.04951 5.42716 2.03302C5.61845 1.52293 5.83416 1.14487 6.04832 0.903311C6.263 0.661174 6.43367 0.600098 6.54999 0.600098C6.66631 0.600098 6.83698 0.661174 7.05166 0.903311C7.26582 1.14487 7.48153 1.52293 7.67282 2.03302C8.054 3.04951 8.29999 4.48733 8.29999 6.1001Z" stroke="white"/>
</g>
<defs>
<clipPath id="clip0_3002_130">
<rect width="12" height="12" fill="white" transform="translate(0.549988 0.100098)"/>
</clipPath>
</defs>
</svg>
